<svg width="200" height="200" viewBox="0 0 200 200" fill="none" xmlns="http://www.w3.org/2000/svg">
<g clip-path="url(#clip0_1_2)">
<path d="M100 164.706C135.736 164.706 164.706 135.736 164.706 100C164.706 64.2639 135.736 35.2941 100 35.2941C64.2639 35.2941 35.2941 64.2639 35.2941 100C35.2941 135.736 64.2639 164.706 100 164.706Z" fill="#CC1B1B"/>
<path d="M100 0C80.2219 0 60.8879 5.8649 44.443 16.853C27.9981 27.8412 15.1809 43.459 7.61209 61.7316C0.0433284 80.0042 -1.937 100.111 1.92152 119.509C5.78004 138.907 15.3041 156.725 29.2894 170.711C43.2746 184.696 61.0929 194.22 80.491 198.078C99.8891 201.937 119.996 199.957 138.268 192.388C156.541 184.819 172.159 172.002 183.147 155.557C194.135 139.112 200 119.778 200 100C199.97 73.4874 189.425 48.0692 170.678 29.322C151.931 10.5748 126.513 0.0295821 100 0ZM100 176.471C84.8756 176.471 70.0908 171.986 57.5152 163.583C44.9397 155.18 35.1383 143.237 29.3504 129.264C23.5626 115.291 22.0482 99.9151 24.9988 85.0813C27.9494 70.2475 35.2325 56.6217 45.9272 45.9271C56.6218 35.2325 70.2475 27.9494 85.0813 24.9988C99.9152 22.0481 115.291 23.5625 129.264 29.3504C143.237 35.1383 155.18 44.9397 163.583 57.5152C171.986 70.0907 176.471 84.8755 176.471 100C176.447 120.274 168.383 139.711 154.047 154.047C139.711 168.383 120.274 176.447 100 176.471Z" fill="#CC1B1B"/>
<path d="M162.762 156.05L86.5462 77.2056C85.3404 75.9581 83.3858 75.9581 82.1802 77.2056L78.7645 73.672C78.1682 73.0553 77.719 72.3034 77.4523 71.476C77.1856 70.6486 77.1089 69.7683 77.228 68.9048L77.826 64.5721C78.0293 63.0996 77.8984 61.5985 77.4438 60.1874C76.9891 58.7763 76.2231 57.4942 75.2065 56.4424L50.4566 30.8376C49.3771 29.7208 47.6271 29.7208 46.5476 30.8376L46.4278 30.9615C45.3483 32.0782 45.3483 33.8886 46.4278 35.0051L66.2676 55.5293C66.5198 55.7901 66.7198 56.0998 66.8563 56.4406C66.9927 56.7814 67.063 57.1467 67.063 57.5156C67.063 57.8845 66.9927 58.2498 66.8563 58.5906C66.7198 58.9314 66.5198 59.2411 66.2676 59.5019C65.7371 60.0507 65.0426 60.3251 64.3478 60.3251C63.653 60.3251 62.9582 60.0507 62.428 59.5019L42.5874 38.978C41.5079 37.8612 39.7579 37.8612 38.6783 38.978C37.5988 40.0948 37.5988 41.9051 38.6783 43.0219L58.5181 63.5461C58.7703 63.8069 58.9703 64.1166 59.1068 64.4574C59.2433 64.7982 59.3135 65.1635 59.3135 65.5324C59.3135 65.9013 59.2433 66.2666 59.1068 66.6074C58.9703 66.9482 58.7703 67.2579 58.5181 67.5187C58.2663 67.78 57.9671 67.9873 57.6376 68.1285C57.3082 68.2698 56.955 68.3423 56.5983 68.3419C56.2417 68.3423 55.8884 68.2699 55.559 68.1286C55.2295 67.9873 54.9303 67.7801 54.6785 67.5187L34.8385 46.9943C33.7589 45.8775 32.0089 45.8775 30.9294 46.9943L30.8096 47.1182C29.7301 48.2349 29.7301 50.0453 30.8096 51.1621L55.5601 76.7669C56.5768 77.8187 57.8162 78.6111 59.1803 79.0815C60.5443 79.5518 61.9955 79.6872 63.4189 79.4768L67.6066 78.8576C68.4413 78.7342 69.2923 78.8136 70.0923 79.0893C70.8922 79.3651 71.6191 79.8297 72.2154 80.4464L75.6312 83.9801C74.4253 85.2275 74.4253 87.2495 75.6312 88.4966L152.156 167.661C155.267 170.88 160.374 170.776 163.356 167.35C166.153 164.137 165.717 159.108 162.762 156.05Z" fill="#FF982A"/>
<path d="M158.076 161.887L96.318 97.9984L101.482 92.6561L93.3353 84.2283L90.0915 87.584C89.0311 88.681 87.3115 88.681 86.2511 87.584L81.1192 82.2751C80.0588 81.1781 78.3395 81.1781 77.2791 82.2751L75.6312 83.9801C74.4253 85.2275 74.4253 87.2495 75.6312 88.4966L152.156 167.661C152.414 167.928 152.686 168.172 152.97 168.394C156.877 171.446 161.538 165.468 158.076 161.887Z" fill="#FF8400"/>
<path d="M170 42.3283L48.8461 167.661C45.832 170.78 40.9454 170.78 37.9316 167.661C34.9175 164.544 34.9175 159.488 37.9316 156.37L76.1332 116.851C78.0087 114.911 80.7904 114.48 83.0684 115.558C84.2682 116.125 85.6567 116.032 86.5897 115.067L91.4137 110.076C92.6195 108.829 92.6195 106.807 91.4137 105.56C89.0025 103.066 89.0025 99.0214 91.4137 96.527L130.707 55.8778C156.902 28.7788 170 42.3283 170 42.3283Z" fill="#FF8400"/>
<path d="M83.0684 115.558C80.7904 114.48 78.0087 114.911 76.1332 116.851L37.9316 156.37C37.9051 156.398 37.8791 156.425 37.8531 156.453C35.0944 159.389 39.5919 163.686 42.3908 160.791L86.5897 115.067C85.6567 116.032 84.2682 116.125 83.0684 115.558ZM150.667 48.7789C153.491 45.8577 150.094 41.0633 146.586 43.0372C141.974 45.632 136.681 49.6976 130.707 55.8778L91.4137 96.527C89.0025 99.0214 89.0025 103.066 91.4137 105.56C92.6195 106.807 92.6195 108.829 91.4137 110.076L150.667 48.7789Z" fill="#FF8400"/>
</g>
<defs>
<clipPath id="clip0_1_2">
<rect width="200" height="200" fill="white"/>
</clipPath>
</defs>
</svg>
