<svg width="50" height="50" viewBox="0 0 50 50" fill="none" xmlns="http://www.w3.org/2000/svg">
<g clip-path="url(#clip0_7_9)">
<path d="M25 0C11.2149 0 0 11.2149 0 25C0 38.7851 11.2149 50 25 50C38.7851 50 50 38.7851 50 25C50 11.2149 38.7851 0 25 0ZM43.8146 26.4648H47.0205C46.6922 31.4497 44.7022 35.9875 41.5996 39.5281L39.3397 37.2683C38.7678 36.6963 37.8402 36.6963 37.2682 37.2683C36.6961 37.8402 36.6961 38.7678 37.2682 39.3398L39.528 41.5997C35.9874 44.7022 31.4496 46.6922 26.4648 47.0205V43.8146C26.4648 43.0057 25.809 42.3498 25 42.3498C24.191 42.3498 23.5352 43.0057 23.5352 43.8146V47.0205C18.5503 46.6922 14.0126 44.7022 10.472 41.5996L12.7318 39.3397C13.3039 38.7678 13.3039 37.8402 12.7318 37.2682C12.1598 36.6961 11.2323 36.6961 10.6603 37.2682L8.40039 39.5281C5.29775 35.9875 3.30781 31.4497 2.97949 26.4648H6.18525C6.99424 26.4648 7.6501 25.809 7.6501 25C7.6501 24.191 6.99424 23.5352 6.18525 23.5352H2.97949C3.30781 18.5503 5.29775 14.0126 8.40039 10.472L10.6603 12.7318C10.7961 12.8681 10.9576 12.9761 11.1353 13.0498C11.313 13.1234 11.5036 13.1612 11.696 13.1609C12.0708 13.1609 12.4458 13.0179 12.7317 12.7318C13.3038 12.1599 13.3038 11.2323 12.7317 10.6603L10.472 8.40039C14.0125 5.29775 18.5503 3.30781 23.5352 2.97949V6.18525C23.5352 6.99424 24.191 7.6501 25 7.6501C25.809 7.6501 26.4648 6.99424 26.4648 6.18525V2.97949C31.4497 3.30781 35.9875 5.29775 39.5281 8.40029L37.2683 10.6602C36.6962 11.2322 36.6962 12.1597 37.2683 12.7317C37.5543 13.0178 37.9292 13.1608 38.304 13.1608C38.6788 13.1608 39.0538 13.0179 39.3397 12.7317L41.5996 10.4718C44.7022 14.0124 46.6922 18.5502 47.0205 23.5351H43.8146C43.0057 23.5351 42.3498 24.1909 42.3498 24.9999C42.3498 25.8089 43.0057 26.4648 43.8146 26.4648ZM26.4648 11.0101V25C26.4648 25.2966 26.3748 25.5863 26.2066 25.8306C26.0384 26.0749 25.8 26.2625 25.523 26.3684L15.7092 30.1195C15.5423 30.1835 15.3651 30.2163 15.1864 30.2164C14.5967 30.2164 14.0409 29.8578 13.8179 29.2742C13.529 28.5186 13.9074 27.6718 14.6632 27.3829L23.5352 23.9917V11.0101C23.5352 10.2011 24.191 9.54521 25 9.54521C25.809 9.54521 26.4648 10.2011 26.4648 11.0101Z" fill="url(#paint0_linear_7_9)"/>
</g>
<defs>
<linearGradient id="paint0_linear_7_9" x1="0" y1="0" x2="50" y2="50" gradientUnits="userSpaceOnUse">
<stop stop-color="#FF8400"/>
<stop offset="1" stop-color="#CC1B1B"/>
</linearGradient>
<clipPath id="clip0_7_9">
<rect width="50" height="50" fill="white"/>
</clipPath>
</defs>
</svg>
